<?xml version="1.0" standalone="no"?><!DOCTYPE svg PUBLIC "-//W3C//DTD SVG 1.1//EN" "http://www.w3.org/Graphics/SVG/1.1/DTD/svg11.dtd"><svg t="1645609293568" class="icon" viewBox="0 0 1024 1024" version="1.1" xmlns="http://www.w3.org/2000/svg" p-id="2040" xmlns:xlink="http://www.w3.org/1999/xlink" width="200" height="200"><defs><style type="text/css"></style></defs><path d="M0 512a512 512 0 1 0 1024 0 512 512 0 0 0-1024 0z" fill="#F3BA2F" p-id="2041"></path><path d="M420.48 512L512 420.48 603.477333 512 512 603.52z" fill="#FFFFFF" p-id="2042"></path><path d="M420.48 211.84L270.421333 361.941333l91.52 91.52L512 303.36l150.058667 150.101333 91.52-91.52-150.058667-150.101333L512 120.362667 420.48 211.84z m183.04 600.32l150.058667-150.101333-91.52-91.52L512 720.64l-150.058667-150.101333-91.52 91.52 150.058667 150.101333L512 903.637333l91.52-91.477333zM120.32 512l91.52-91.52L303.36 512l-91.52 91.52L120.32 512z m600.32 0l91.477333-91.52L903.68 512l-91.52 91.52L720.64 512z" fill="#FFFFFF" p-id="2043"></path></svg>