<?xml version="1.0" standalone="no"?><!DOCTYPE svg PUBLIC "-//W3C//DTD SVG 1.1//EN" "http://www.w3.org/Graphics/SVG/1.1/DTD/svg11.dtd"><svg t="1645782786066" class="icon" viewBox="0 0 1024 1024" version="1.1" xmlns="http://www.w3.org/2000/svg" p-id="6035" xmlns:xlink="http://www.w3.org/1999/xlink" width="200" height="200"><defs><style type="text/css"></style></defs><path d="M0 0h1024v1024H0z" fill="#D8D8D8" fill-opacity="0" p-id="6036"></path><path d="M512 256c-141.1584 0-256 114.8416-256 256s114.8416 256 256 256 256-114.8416 256-256-114.8416-256-256-256z m-221.8752 256c0-53.504 19.0464-102.656 50.688-141.0048 3.328 3.712 6.0672 8.6016 7.3216 15.1296 2.6624 13.952-7.1168 59.8016 5.3248 69.888 18.9696 15.36 48.3584 2.432 63.488 11.7248 15.2832 9.3696 53.4016 53.1712 68.3008 44.2624 25.0112-14.9504-17.8688-73.984-19.712-89.9584-2.7392-23.6544 12.1856-51.3792 39.424-41.3184 17.1008 6.3232 20.6592 29.1328 36.6336 30.0544 15.9744 0.9472 8.5248-49.2032 8.448-57.2928-0.1536-22.6304 22.144-38.7072 45.8752-46.848 80.8448 33.1776 137.9584 112.6912 137.9584 205.3632a220.416 220.416 0 0 1-25.472 103.0144c-1.8432-19.8656-6.6816-41.984-18.7648-48.768-23.4752-13.1328-49.6128-0.5632-68.5568-21.5808-7.8336-8.704 2.0224-47.5136-21.5808-56.832-45.8752-18.1504-83.0208 19.2512-94.3104 49.3056a88.0384 88.0384 0 0 0-4.096 42.9312c0.4608 48.1792-24.4736 48.2048-15.0272 67.5328 10.368 21.1712 47.4112 13.6704 40.192 57.9584-1.024 6.528-4.1728 12.544-8.9856 17.0496-4.3008 2.8672-8.704 5.5808-13.1584 8.192-2.4832 0.9984-5.0176 1.792-7.6032 2.4576-115.1232-7.9872-206.3872-104.1408-206.3872-221.2608z" p-id="6037"></path></svg>