<?xml version="1.0" standalone="no"?><!DOCTYPE svg PUBLIC "-//W3C//DTD SVG 1.1//EN" "http://www.w3.org/Graphics/SVG/1.1/DTD/svg11.dtd"><svg t="1648447530150" class="icon" viewBox="0 0 1024 1024" version="1.1" xmlns="http://www.w3.org/2000/svg" p-id="2321" xmlns:xlink="http://www.w3.org/1999/xlink" width="200" height="200"><defs><style type="text/css">@font-face { font-family: feedback-iconfont; src: url("//at.alicdn.com/t/font_1031158_u69w8yhxdu.woff2?t=1630033759944") format("woff2"), url("//at.alicdn.com/t/font_1031158_u69w8yhxdu.woff?t=1630033759944") format("woff"), url("//at.alicdn.com/t/font_1031158_u69w8yhxdu.ttf?t=1630033759944") format("truetype"); }
</style></defs><path d="M837.973333 570.026667H124.586667a29.013333 29.013333 0 0 1-29.013334-29.013334v-58.026666a29.013333 29.013333 0 0 1 29.013334-29.013334h713.386666v116.053334z" fill="#2C2C2C" p-id="2322"></path><path d="M561.322667 808.96l-40.96-40.96a28.928 28.928 0 0 1 0-40.96l215.04-215.04-215.04-215.04a29.013333 29.013333 0 0 1 0-40.96l40.96-40.96a29.013333 29.013333 0 0 1 40.96 0l296.96 296.96-296.96 296.96a29.013333 29.013333 0 0 1-40.96 0z" fill="#2C2C2C" p-id="2323"></path></svg>