<?xml version="1.0" standalone="no"?><!DOCTYPE svg PUBLIC "-//W3C//DTD SVG 1.1//EN" "http://www.w3.org/Graphics/SVG/1.1/DTD/svg11.dtd"><svg t="1645608361860" class="icon" viewBox="0 0 2048 1024" version="1.1" xmlns="http://www.w3.org/2000/svg" p-id="1813" xmlns:xlink="http://www.w3.org/1999/xlink" width="400" height="200"><defs><style type="text/css"></style></defs><path d="M1945.9072 0a102.4 102.4 0 0 1 101.6832 90.4192l0.7168 11.9808v420.864a102.4 102.4 0 0 1-204.1856 11.9808l-0.6144-11.9808-0.1024-207.6672-672.4608 650.6496a102.4 102.4 0 0 1-133.8368 7.4752l-9.5232-8.3968-372.4288-370.5856-492.544 358.2976a102.4 102.4 0 0 1-134.8608-12.6976l-8.192-9.9328a102.4 102.4 0 0 1 12.6976-134.8608l9.9328-8.192 563.2-409.6a102.4 102.4 0 0 1 123.0848 2.048l9.3184 8.192 362.9056 361.2672L1663.488 204.8h-149.7088a102.4 102.4 0 0 1-101.7856-90.4192L1411.3792 102.4a102.4 102.4 0 0 1 90.4192-101.6832L1513.7792 0h432.128z" fill="#1CD2A9" p-id="1814"></path></svg>