<?xml version="1.0" standalone="no"?><!DOCTYPE svg PUBLIC "-//W3C//DTD SVG 1.1//EN" "http://www.w3.org/Graphics/SVG/1.1/DTD/svg11.dtd"><svg t="1646292541524" class="icon" viewBox="0 0 1024 1024" version="1.1" xmlns="http://www.w3.org/2000/svg" p-id="2024" xmlns:xlink="http://www.w3.org/1999/xlink" width="200" height="200"><defs><style type="text/css"></style></defs><path d="M0 0h1024v1024H0z" fill="#D8D8D8" fill-opacity="0" p-id="2025"></path><path d="M581.4016 341.3504c15.8464 0.5632 30.976 4.3008 46.0288 9.0112 21.2992 6.656 40.7808 16.7936 59.136 29.3632 4.2752 2.9184 7.0656 6.8096 9.216 11.264 6.0672 12.6976 11.9552 25.472 16.896 38.656 3.968 10.5472 8.3712 20.9664 11.52 31.744 2.56 8.8064 5.7344 17.408 7.7568 26.3936 1.8688 8.2432 4.608 16.3072 6.4 24.576 2.304 10.7776 4.4544 21.6064 6.144 32.5376 1.6384 10.624 2.8672 21.2736 4.352 31.8976 0.6144 4.5312 0.9216 9.0624 1.0752 13.6192 0.256 6.656-0.3328 13.3632 0.768 19.9936 1.152 6.912-2.0224 12.1088-6.3232 17.1008a145.0496 145.0496 0 0 1-46.08 35.4816 175.5648 175.5648 0 0 1-40.6016 13.6704c-9.1904 2.048-18.432 2.4576-27.6992 3.328a6.272 6.272 0 0 1-5.8112-2.5088c-6.6304-8.192-13.2864-16.384-19.84-24.6016-2.304-2.8928-2.1248-3.9936 1.28-5.4784 7.7824-3.4048 15.9488-5.8368 23.4752-9.728 15.488-8.064 29.4912-18.0736 40.704-31.616 1.152-1.3824 3.6864-3.1488 2.2272-4.9152-1.4848-1.792-3.1488 0.768-4.608 1.6128-21.7088 12.8512-44.672 22.784-68.8384 30.1056-5.6576 1.7152-11.3408 3.3792-17.0752 4.6848-10.8544 2.4832-21.76 4.7616-32.896 5.7856-10.24 0.9216-20.4032 2.2784-30.72 2.2272a325.2224 325.2224 0 0 1-35.6352-1.92c-8.704-0.9984-17.28-2.4064-25.856-3.8912a197.8112 197.8112 0 0 1-13.2352-2.8416 316.3392 316.3392 0 0 1-58.368-20.4288 226.816 226.816 0 0 1-25.344-13.312c-0.896-0.5632-1.8944-0.9984-2.816-1.536-0.8192-0.4608-1.664-0.9984-2.4064 0.0768-0.64 0.9472 0.1792 1.4848 0.64 2.1248 3.5328 5.0176 7.8336 9.344 12.3904 13.4144 12.4928 11.1104 26.5472 19.712 42.1376 25.7536 2.688 1.024 5.3248 2.1504 8.064 3.1232 4.9152 1.7152 5.12 2.7136 1.8944 6.784-4.5056 5.6832-9.1136 11.264-13.7216 16.896l-2.944 3.328a15.7952 15.7952 0 0 0-1.3312 1.792c-2.7904 4.4288-6.784 5.888-11.6992 5.0176-5.632-0.9984-11.392-0.8192-17.0496-1.8432a186.4704 186.4704 0 0 1-35.1488-9.6768 144.4864 144.4864 0 0 1-49.28-31.2576 86.6816 86.6816 0 0 1-13.7984-16.2816 7.7824 7.7824 0 0 1-1.3056-4.2496 378.4448 378.4448 0 0 1 6.0416-71.552c1.0496-5.6832 1.92-11.52 2.9184-17.2288 1.9968-11.3152 4.6848-22.528 7.6032-33.6384 3.5072-13.4656 7.68-26.7264 12.1088-39.936 7.168-21.504 16.128-42.2912 25.6-62.8736 3.1744-6.8864 8.6528-11.2896 14.7456-15.36 11.1872-7.4496 23.2448-13.312 35.3792-18.944 10.24-4.7616 21.0688-7.8592 31.9488-10.6752 10.2912-2.6624 20.6848-4.608 31.3344-4.9664 0.5888 0 1.2032-0.0768 1.792 0 1.792 0.3328 4.3264 0.3584 4.5568 2.3552 0.256 2.176-2.4064 2.0736-3.968 2.5344-12.3648 3.584-24.2944 8.3968-36.224 13.2096-17.664 7.168-34.3552 16.2304-50.176 26.88-3.456 2.3552-6.656 5.12-9.9328 7.7312-0.4608 0.384-1.3568 0.768-0.9472 1.6384 0.4608 0.9216 1.3824 0.8192 2.1504 0.4864 2.9696-1.3824 5.8368-2.9184 8.8576-4.1728 17.8432-7.5008 35.6352-15.104 54.3488-20.4288 11.5968-3.328 23.424-5.632 35.2256-8.0128 9.088-1.8432 18.5088-1.9456 27.7504-3.2256 14.7712-2.048 29.6448-2.2528 44.4928-1.9968 11.8784 0.2304 23.7056 0.9984 35.5328 2.56 12.1088 1.5616 24.2176 3.2256 36.0448 6.0416a313.6 313.6 0 0 1 40.2432 12.4672c12.4672 4.7872 24.5248 10.5216 36.736 15.9232 1.0752 0.4608 2.0992 0.9472 3.9168 0.1792a147.5072 147.5072 0 0 0-20.9408-15.3344 301.4656 301.4656 0 0 0-47.104-23.296c-7.552-2.9696-15.1296-6.0416-23.0912-7.936-2.1248-0.512-4.864-1.408-4.4544-4.0448 0.4352-2.7904 2.7136-3.7888 5.8368-3.6608z m-119.6032 162.56a41.1136 41.1136 0 0 0-37.2992-9.3952c-14.592 3.2-24.448 12.7232-30.2848 26.0864-5.2992 12.0832-4.9664 24.2432-0.0256 36.5056 7.936 19.7888 25.5488 27.4944 42.4448 27.4944 6.656 0 13.44-2.5856 19.2-6.4256 14.208-9.5232 21.3504-22.8352 21.4016-39.7568 0-3.6096-0.2048-7.0912-1.28-10.6496-2.7392-9.1392-6.6816-17.408-14.1568-23.8336z m156.1856 4.7616c-13.4144-16.0768-34.0992-19.4048-51.6352-10.3168-15.2064 7.8848-22.8096 21.3504-23.8336 37.9904-0.6912 11.0848 2.4064 21.4272 9.1648 30.5408 14.3616 19.3792 39.2448 23.2448 58.8544 9.728 12.8-8.832 18.688-21.8624 18.7648-37.248-0.0768-12.8512-2.7136-20.4032-11.3152-30.72z" p-id="2026"></path></svg>