<?xml version="1.0" standalone="no"?><!DOCTYPE svg PUBLIC "-//W3C//DTD SVG 1.1//EN" "http://www.w3.org/Graphics/SVG/1.1/DTD/svg11.dtd"><svg t="1645602870196" class="icon" viewBox="0 0 1024 1024" version="1.1" xmlns="http://www.w3.org/2000/svg" p-id="1943" xmlns:xlink="http://www.w3.org/1999/xlink" width="200" height="200"><defs><style type="text/css"></style></defs><path d="M0 0h1024v1024H0z" fill="#D8D8D8" fill-opacity="0" p-id="1944"></path><path d="M512 298.6752a213.3248 213.3248 0 1 1 0 426.6496 213.3248 213.3248 0 0 1 0-426.6496z m89.1648 109.696a6.784 6.784 0 0 0-7.04-1.1008l-218.3168 90.9568a6.784 6.784 0 0 0-1.7408 11.4944l47.5648 39.6032c2.4064 2.0224 5.888 2.0992 8.4224 0.2304l116.2752-87.2448-98.4832 98.5088a6.784 6.784 0 0 0-1.9968 4.8128v51.1488a6.784 6.784 0 0 0 11.5712 4.7872l24.2176-24.2176a6.784 6.784 0 0 1 9.1648-0.4096l47.2064 39.3472a6.784 6.784 0 0 0 10.9312-3.584l54.3744-217.5232a6.784 6.784 0 0 0-2.1504-6.8096z"  p-id="1945"></path></svg>