<?xml version="1.0" standalone="no"?><!DOCTYPE svg PUBLIC "-//W3C//DTD SVG 1.1//EN" "http://www.w3.org/Graphics/SVG/1.1/DTD/svg11.dtd"><svg t="1645594935153" class="icon" viewBox="0 0 1024 1024" version="1.1" xmlns="http://www.w3.org/2000/svg" p-id="1683" xmlns:xlink="http://www.w3.org/1999/xlink" width="200" height="200"><defs><style type="text/css"></style></defs><path d="M638.634667 159.786667a32 32 0 0 1 0 64H224.042667v639.872h576.128V383.786667a32 32 0 0 1 64 0v511.872a32 32 0 0 1-32 32H192a32 32 0 0 1-32-32V191.786667a32 32 0 0 1 32-32zM573.013333 724.992a32 32 0 0 1 0 64H322.005333a32 32 0 0 1 0-64z m130.986667-130.005333a32 32 0 0 1 0 64H322.005333a32 32 0 0 1 0-64z m102.997333-427.434667a32 32 0 1 1 45.269334 45.226667l-321.408 321.450666a31.914667 31.914667 0 0 1-45.226667 0 32 32 0 0 1 0-45.226666z" p-id="1684"></path></svg>