<?xml version="1.0" standalone="no"?><!DOCTYPE svg PUBLIC "-//W3C//DTD SVG 1.1//EN" "http://www.w3.org/Graphics/SVG/1.1/DTD/svg11.dtd"><svg t="1645602880631" class="icon" viewBox="0 0 1024 1024" version="1.1" xmlns="http://www.w3.org/2000/svg" p-id="2205" xmlns:xlink="http://www.w3.org/1999/xlink" width="200" height="200"><defs><style type="text/css"></style></defs><path d="M0 0h1024v1024H0z" fill="#D8D8D8" fill-opacity="0" p-id="2206"></path><path d="M595.0464 434.4576c5.376 0 10.7264 0.4096 16 0.9728-14.3616-66.2272-85.9136-115.4304-167.6032-115.4304-91.3152 0-166.1184 61.5936-166.1184 139.776 0 45.1584 24.9088 82.2272 66.4832 110.976l-16.6144 49.4592 58.0608-28.8256c20.7872 4.096 37.4528 8.2688 58.1888 8.2688 5.2224 0 10.368-0.256 15.5136-0.6656a121.088 121.088 0 0 1-5.12-34.432c0-71.808 62.3104-130.0992 141.2096-130.0992z m-89.2928-44.5696c12.4928 0 20.7872 8.1408 20.7872 20.5312 0 12.288-8.2944 20.5568-20.7872 20.5568-12.4672 0-24.96-8.2432-24.96-20.5568 0-12.3904 12.4928-20.5312 24.96-20.5312z m-116.2752 41.088c-12.4416 0-25.0112-8.2432-25.0112-20.5568 0-12.3904 12.544-20.5312 25.0112-20.5312s20.736 8.1408 20.736 20.5312c0 12.288-8.2688 20.5568-20.736 20.5568z m357.1968 131.584c0-65.7152-66.4576-119.2704-141.1072-119.2704-79.0272 0-141.2864 53.5552-141.2864 119.296 0 65.792 62.2592 119.2704 141.2864 119.2704 16.5376 0 33.2288-4.096 49.8432-8.2432l45.568 24.704-12.4928-41.088c33.3312-24.7552 58.1888-57.6 58.1888-94.6432z m-186.9056-20.5568c-8.2688 0-16.64-8.1408-16.64-16.4352 0-8.192 8.3712-16.4352 16.64-16.4352 12.544 0 20.7872 8.2432 20.7872 16.4352 0 8.2944-8.2432 16.4352-20.7872 16.4352z m91.3408 0c-8.192 0-16.4864-8.1408-16.4864-16.4352 0-8.192 8.2944-16.4352 16.4864-16.4352 12.4672 0 20.8128 8.2432 20.8128 16.4352 0 8.2944-8.3456 16.4352-20.8128 16.4352z" p-id="2207"></path></svg>