<?xml version="1.0" standalone="no"?><!DOCTYPE svg PUBLIC "-//W3C//DTD SVG 1.1//EN" "http://www.w3.org/Graphics/SVG/1.1/DTD/svg11.dtd"><svg t="1645753226005" class="icon" viewBox="0 0 1024 1024" version="1.1" xmlns="http://www.w3.org/2000/svg" p-id="6307" xmlns:xlink="http://www.w3.org/1999/xlink" width="200" height="200"><defs><style type="text/css"></style></defs><path d="M796.416 170.688V85.312H113.792V824.96H199.04V227.584c0-31.424 25.472-56.96 56.896-56.96h540.416z m85.376 0h56.896c31.36 0 56.896 25.472 56.896 56.896V967.04c0 31.424-25.472 56.896-56.96 56.896H256a56.896 56.896 0 0 1-56.896-56.896v-56.896H85.312a56.896 56.896 0 0 1-56.896-56.896V56.96C28.416 25.472 53.888 0 85.376 0h739.52c31.36 0 56.896 25.472 56.896 56.896v113.792zM284.416 256v682.688h625.792V256H284.416z m526.272 398.208c7.808 0 14.208 6.4 14.208 14.208v56.96a14.208 14.208 0 0 1-14.208 14.208H384a14.208 14.208 0 0 1-14.208-14.272v-56.896c0-7.808 6.4-14.208 14.208-14.208h426.688z m0-170.624c7.808 0 14.208 6.336 14.208 14.208v56.896c0 7.808-6.4 14.208-14.208 14.208H384a14.208 14.208 0 0 1-14.208-14.208v-56.96c0-7.808 6.4-14.144 14.208-14.144h426.688z" p-id="6308"></path></svg>