<?xml version="1.0" standalone="no"?><!DOCTYPE svg PUBLIC "-//W3C//DTD SVG 1.1//EN" "http://www.w3.org/Graphics/SVG/1.1/DTD/svg11.dtd"><svg t="1648870510007" class="icon" viewBox="0 0 1024 1024" version="1.1" xmlns="http://www.w3.org/2000/svg" p-id="2437" xmlns:xlink="http://www.w3.org/1999/xlink" width="200" height="200"><defs><style type="text/css">@font-face { font-family: feedback-iconfont; src: url("//at.alicdn.com/t/font_1031158_u69w8yhxdu.woff2?t=1630033759944") format("woff2"), url("//at.alicdn.com/t/font_1031158_u69w8yhxdu.woff?t=1630033759944") format("woff"), url("//at.alicdn.com/t/font_1031158_u69w8yhxdu.ttf?t=1630033759944") format("truetype"); }
</style></defs><path d="M579.413333 921.6c28.16 0 51.2 23.04 51.2 51.2 0 28.16-23.04 51.2-51.2 51.2H413.013333c-28.16 0-51.2-23.04-51.2-51.2 0-28.16 23.04-51.2 51.2-51.2h166.4zM494.933333 0c168.96 0 307.2 138.24 307.2 307.2v435.114667l51.2 0.085333c28.16 0 51.2 23.04 51.2 51.2 0 28.16-23.04 51.2-51.2 51.2H136.533333c-28.16 0-51.2-23.04-51.2-51.2 0-28.16 23.04-51.2 51.2-51.2l51.2-0.085333V307.2A308.224 308.224 0 0 1 478.72 0.426667z m0 102.4c-112.64 0-204.8 92.16-204.8 204.8v435.114667h409.6V307.2c0-107.946667-84.650667-197.12-190.805333-204.288z" fill="#F3BA2F" p-id="2438"></path></svg>