<?xml version="1.0" standalone="no"?><!DOCTYPE svg PUBLIC "-//W3C//DTD SVG 1.1//EN"
        "http://www.w3.org/Graphics/SVG/1.1/DTD/svg11.dtd">
<svg t="1645609296320" class="icon" viewBox="0 0 1024 1024" version="1.1" xmlns="http://www.w3.org/2000/svg" p-id="2172"
     xmlns:xlink="http://www.w3.org/1999/xlink" width="200" height="200">
    <defs>
        <style type="text/css"></style>
    </defs>
    <path d="M512 512m-512 0a512 512 0 1 0 1024 0 512 512 0 1 0-1024 0Z" fill="#1CD2A9" p-id="2173"></path>
    <path d="M609.706667 342.186667c3.541333 0 5.717333 0.896 5.632 4.992-0.768 27.178667 2.346667 54.485333-1.493334 81.493333-5.333333 37.333333-35.968 63.061333-73.941333 63.573333-16.213333 0.256-32.597333-0.981333-48.64 2.858667-51.498667 12.330667-84.565333 54.826667-84.736 109.696-0.213333 65.024-0.042667 130.005333-0.085333 194.986667 0 3.626667-0.341333 7.253333-0.554667 10.88H278.101333c-16.64-7.296-22.272-20.138667-22.101333-38.016 0.64-59.349333 0.170667-118.698667 0.170667-178.048 0-128.896 97.621333-238.165333 225.92-251.050667 42.325333-4.266667 85.077333-0.768 127.658666-1.322667z m194.730666 236.373333l0.042667 220.288c0 3.925333 0.469333 7.893333 0.768 11.818667H675.413333c-17.066667-7.594667-22.826667-20.949333-22.016-39.082667 0.896-20.48 0.256-41.045333 0.128-61.610667 0-4.266667 0.512-7.168 5.333334-9.130666a292.693333 292.693333 0 0 0 142.250666-119.466667c0.426667-0.682667 1.365333-1.152 3.285334-2.816zM662.954667 213.333333c35.285333 0.512 70.528 0.213333 105.813333 0.256 24.874667 0 35.669333 10.794667 35.712 35.882667V356.266667c-0.853333 27.264 1.706667 60.8-1.066667 94.208-6.101333 72.618667-38.4 131.584-95.146666 177.024-48.810667 39.168-105.216 56.32-167.765334 54.741333a2181.12 2181.12 0 0 0-86.869333 0c-7.509333 0.128-9.728-2.005333-9.429333-9.472l0.256-15.36-0.341334-30.592c0-10.24 0.298667-20.437333 1.536-30.592 4.266667-35.541333 35.456-63.146667 71.552-64.170667 17.92-0.512 35.84 1.066667 53.589334-3.456 48.64-12.373333 82.346667-54.016 82.645333-104.149333 0.426667-66.986667 0.213333-134.016 0-201.045333-0.085333-7.338667 1.237333-10.154667 9.514667-10.026667z m-399.530667 0.128c37.589333 0.213333 75.178667-0.085333 112.768 0.170667 18.048 0.128 29.781333 11.946667 29.994667 30.122667 0.256 23.552 0 47.104 0.128 70.613333 0 4.309333-0.554667 7.168-5.376 9.130667a292.010667 292.010667 0 0 0-141.354667 119.210666c-0.512 0.810667-1.152 1.493333-3.328 4.309334 0-77.226667 0.042667-151.850667-0.128-226.389334 0-5.76 1.706667-7.253333 7.296-7.168z"
          fill="#18304E" p-id="2174"></path>
</svg>