<?xml version="1.0" standalone="no"?><!DOCTYPE svg PUBLIC "-//W3C//DTD SVG 1.1//EN" "http://www.w3.org/Graphics/SVG/1.1/DTD/svg11.dtd"><svg t="1645494259570" class="icon" viewBox="0 0 1024 1024" version="1.1" xmlns="http://www.w3.org/2000/svg" p-id="1186" xmlns:xlink="http://www.w3.org/1999/xlink" width="200" height="200"><defs><style type="text/css"></style></defs><path d="M227.584 193.92a426.24 426.24 0 0 1 151.125333-87.381333A170.368 170.368 0 0 0 512 170.624a170.368 170.368 0 0 0 133.290667-64.085333 426.24 426.24 0 0 1 151.125333 87.381333 170.368 170.368 0 0 0 11.178667 147.370667 170.368 170.368 0 0 0 122.154666 83.413333 428.501333 428.501333 0 0 1 0 174.506667c-49.493333 7.594667-95.146667 36.693333-122.154666 83.413333a170.368 170.368 0 0 0-11.178667 147.413333 426.24 426.24 0 0 1-151.125333 87.338667A170.368 170.368 0 0 0 512 853.333333a170.368 170.368 0 0 0-133.290667 64.085334 426.24 426.24 0 0 1-151.125333-87.338667A170.368 170.368 0 0 0 216.405333 682.666667a170.368 170.368 0 0 0-122.154666-83.370667 428.501333 428.501333 0 0 1 0-174.549333A170.368 170.368 0 0 0 216.405333 341.333333a170.368 170.368 0 0 0 11.178667-147.370666zM576 622.805333a128 128 0 1 0-128-221.696 128 128 0 0 0 128 221.696z" p-id="1187"></path></svg>