<?xml version="1.0" standalone="no"?><!DOCTYPE svg PUBLIC "-//W3C//DTD SVG 1.1//EN" "http://www.w3.org/Graphics/SVG/1.1/DTD/svg11.dtd"><svg t="1645608357914" class="icon" viewBox="0 0 2048 1024" version="1.1" xmlns="http://www.w3.org/2000/svg" p-id="1683" xmlns:xlink="http://www.w3.org/1999/xlink" width="400" height="200"><defs><style type="text/css"></style></defs><path d="M1161.296335 48.94627l9.625417 8.294242 672.448024 650.637238V500.624088a102.398054 102.398054 0 0 1 90.51988-101.681268l11.980572-0.716786a102.398054 102.398054 0 0 1 101.681269 90.417482l0.716786 11.980572v420.856004a102.398054 102.398054 0 0 1-90.51988 101.681268l-11.878175 0.716786h-432.119789a102.398054 102.398054 0 0 1-11.980573-204.079322l11.980573-0.716787h150.013149l-563.086901-544.860047-362.898705 361.362734a102.398054 102.398054 0 0 1-121.853685 16.895679l-10.546999-6.655874-563.1893-409.592217A102.398054 102.398054 0 0 1 151.753917 63.69159l10.854193 6.86067 492.534642 358.290792L1027.564476 58.264493a102.398054 102.398054 0 0 1 133.731859-9.215825z" fill="#F04735" p-id="1684"></path></svg>