<?xml version="1.0" standalone="no"?><!DOCTYPE svg PUBLIC "-//W3C//DTD SVG 1.1//EN" "http://www.w3.org/Graphics/SVG/1.1/DTD/svg11.dtd"><svg t="1645609300428" class="icon" viewBox="0 0 1024 1024" version="1.1" xmlns="http://www.w3.org/2000/svg" p-id="2303" xmlns:xlink="http://www.w3.org/1999/xlink" width="200" height="200"><defs><style type="text/css"></style></defs><path d="M512 512m-512 0a512 512 0 1 0 1024 0 512 512 0 1 0-1024 0Z" fill="#9244EE" p-id="2304"></path><path d="M170.666667 328.96c5.973333-14.805333 17.749333-23.424 31.232-31.104A9713.749333 9713.749333 0 0 0 332.373333 221.653333c18.389333-10.88 35.754667-11.306667 54.442667 0 43.818667 26.368 88.021333 52.053333 132.266667 77.653334 17.322667 10.112 26.24 24.277333 25.6 44.629333-0.512 16.298667-0.170667 32.597333-0.085334 48.896 0.042667 4.437333-0.64 7.850667-5.034666 10.368-20.053333 11.306667-39.936 22.954667-62.122667 35.84 0-16-0.938667-30.165333 0.170667-44.16 2.176-27.392-8.533333-46.250667-33.024-59.050667-20.778667-10.88-40.362667-23.936-60.458667-36.138666-17.450667-10.581333-34.688-11.008-52.48-0.341334-22.4 13.44-45.056 26.453333-67.754667 39.381334-17.450667 9.941333-25.856 24.362667-25.429333 44.714666 0.597333 26.496 0.512 53.034667 0 79.573334-0.341333 19.712 7.338667 34.090667 24.405333 44.074666 23.552 13.781333 46.677333 28.245333 70.101334 42.24 16.341333 9.728 32.981333 10.368 49.408 0.170667 83.370667-51.754667 170.368-97.28 254.122666-148.352 19.754667-12.074667 38.144-12.8 58.453334-0.554667 43.52 26.112 87.637333 51.2 131.669333 76.458667 18.090667 10.368 26.88 25.173333 26.709333 46.378667-0.512 52.693333-0.426667 105.386667 0 158.037333 0.128 20.650667-8.064 35.285333-26.026666 45.525333a10803.754667 10803.754667 0 0 0-133.717334 77.525334c-18.773333 11.093333-36.48 11.264-55.509333-0.128a7981.824 7981.824 0 0 0-132.608-77.056c-17.834667-10.24-27.008-24.490667-26.325333-45.312 0.554667-15.530667 0.170667-31.104 0.085333-46.634667 0-4.352 0.426667-7.936 4.906667-10.453333 20.053333-11.349333 39.936-22.954667 59.733333-34.389334 3.84 2.56 2.432 5.888 2.432 8.618667 0.170667 14.762667 0 29.525333 0.128 44.330667 0.213333 17.152 7.04 31.018667 21.930667 39.893333a3818.666667 3818.666667 0 0 0 74.666666 43.349333c15.786667 8.874667 31.701333 8.832 47.488-0.64 22.698667-13.653333 45.482667-27.221333 68.309334-40.704 16.426667-9.642667 24.96-23.381333 24.661333-42.88a3066.026667 3066.026667 0 0 1-0.042667-82.986666c0.170667-19.413333-8.277333-33.066667-25.045333-42.496-22.442667-12.629333-44.714667-25.6-66.816-38.826667-18.304-10.965333-35.84-11.093333-54.528-0.128-83.669333 48.981333-167.68 97.365333-251.392 146.346667-19.328 11.306667-37.205333 11.264-56.533333-0.256-41.941333-25.088-84.266667-49.493333-126.72-73.642667-14.762667-8.362667-26.709333-18.389333-31.744-35.114667V328.96z" fill="#FFFFFF" p-id="2305"></path></svg>