<?xml version="1.0" standalone="no"?><!DOCTYPE svg PUBLIC "-//W3C//DTD SVG 1.1//EN" "http://www.w3.org/Graphics/SVG/1.1/DTD/svg11.dtd"><svg t="1648523572787" class="icon" viewBox="0 0 1024 1024" version="1.1" xmlns="http://www.w3.org/2000/svg" p-id="2321" xmlns:xlink="http://www.w3.org/1999/xlink" width="200" height="200"><defs><style type="text/css">@font-face { font-family: feedback-iconfont; src: url("//at.alicdn.com/t/font_1031158_u69w8yhxdu.woff2?t=1630033759944") format("woff2"), url("//at.alicdn.com/t/font_1031158_u69w8yhxdu.woff?t=1630033759944") format("woff"), url("//at.alicdn.com/t/font_1031158_u69w8yhxdu.ttf?t=1630033759944") format("truetype"); }
</style></defs><path d="M384 256h256c28.4672 0 42.6496 14.2336 42.6496 42.6496 0 28.4672-14.1824 42.7008-42.6496 42.7008h-256c-28.4672 0-42.6496-14.2336-42.6496-42.7008 0-28.416 14.1824-42.6496 42.6496-42.6496zM384 426.6496H512c28.4672 0 42.6496 14.2336 42.6496 42.7008 0 28.416-14.1824 42.6496-42.6496 42.6496H384c-28.4672 0-42.6496-14.2336-42.6496-42.6496 0-28.4672 14.1824-42.7008 42.6496-42.7008z" fill="#1CD2A9" p-id="2322"></path><path d="M810.6496 85.3504H213.3504a42.6496 42.6496 0 0 0-42.7008 42.6496v768c0 23.552 19.0976 42.6496 42.7008 42.6496h213.2992a42.6496 42.6496 0 1 0 0-85.2992H256V170.6496h512V512a42.6496 42.6496 0 0 0 85.3504 0V128a42.6496 42.6496 0 0 0-42.7008-42.6496z" fill="#1CD2A9" p-id="2323"></path><path d="M840.704 865.9456l-53.76-54.016a170.6496 170.6496 0 1 0-60.3136 60.416l53.9648 53.9648a42.6496 42.6496 0 1 0 60.16-60.416z m-200.704-55.296a85.3504 85.3504 0 1 1 0-170.6496 85.3504 85.3504 0 0 1 0 170.6496z" fill="#1CD2A9" p-id="2324"></path></svg>