<?xml version="1.0" standalone="no"?><!DOCTYPE svg PUBLIC "-//W3C//DTD SVG 1.1//EN" "http://www.w3.org/Graphics/SVG/1.1/DTD/svg11.dtd"><svg t="1645602890127" class="icon" viewBox="0 0 1024 1024" version="1.1" xmlns="http://www.w3.org/2000/svg" p-id="2336" xmlns:xlink="http://www.w3.org/1999/xlink" width="200" height="200"><defs><style type="text/css"></style></defs><path d="M0 0h1024v1024H0z" fill="#D8D8D8" fill-opacity="0" p-id="2337"></path><path d="M667.136 341.3248a58.1888 58.1888 0 0 1 58.1888 58.1888v213.3248a58.1888 58.1888 0 0 1-58.1632 58.1888H356.8384a58.1888 58.1888 0 0 1-58.1632-58.1888v-213.3248a58.1888 58.1888 0 0 1 58.1632-58.1888h310.3232z m22.528 70.7584a14.5408 14.5408 0 0 0-19.0208-6.3232l-158.1568 74.6496-159.1552-74.5728-1.28-0.512a14.5408 14.5408 0 0 0-11.0592 26.88l165.376 77.44 1.4848 0.6144c3.584 1.2032 7.4752 0.9984 10.88-0.6144l164.3264-77.568 1.2288-0.6656a14.5408 14.5408 0 0 0 5.376-19.328z" p-id="2338"></path></svg>