<?xml version="1.0" standalone="no"?><!DOCTYPE svg PUBLIC "-//W3C//DTD SVG 1.1//EN" "http://www.w3.org/Graphics/SVG/1.1/DTD/svg11.dtd"><svg t="1648457740422" class="icon" viewBox="0 0 1024 1024" version="1.1" xmlns="http://www.w3.org/2000/svg" p-id="2452" xmlns:xlink="http://www.w3.org/1999/xlink" width="200" height="200"><defs><style type="text/css">@font-face { font-family: feedback-iconfont; src: url("//at.alicdn.com/t/font_1031158_u69w8yhxdu.woff2?t=1630033759944") format("woff2"), url("//at.alicdn.com/t/font_1031158_u69w8yhxdu.woff?t=1630033759944") format("woff"), url("//at.alicdn.com/t/font_1031158_u69w8yhxdu.ttf?t=1630033759944") format("truetype"); }
</style></defs><path d="M128 112h768c35.328 0 64 29.184 64 65.152v556.032a64.64 64.64 0 0 1-64 65.152h-256l-80.192 91.776a63.232 63.232 0 0 1-95.616 0L384 798.336H128c-35.328 0-64-29.184-64-65.152V177.152A64.64 64.64 0 0 1 128 112z m342.208 129.984l-1.536 0.064c-9.984 0.768-17.408 8.448-16.64 17.28l31.168 329.984c0.768 8.32 8.64 14.72 18.112 14.72h21.12c9.472 0 17.344-6.4 18.112-14.72l31.168-329.984v-1.28c0-8.896-8.128-16-18.176-16H470.208z m33.024 385.984c-10.112 0-18.24 7.168-18.24 16v38.016c0 8.832 8.128 16 18.24 16h18.176c10.048 0 18.24-7.168 18.24-16v-38.016c0-8.832-8.192-16-18.24-16h-18.176z" fill="#FFFFFF" p-id="2453"></path></svg>