<?xml version="1.0" standalone="no"?><!DOCTYPE svg PUBLIC "-//W3C//DTD SVG 1.1//EN" "http://www.w3.org/Graphics/SVG/1.1/DTD/svg11.dtd"><svg t="1648204540653" class="icon" viewBox="0 0 1024 1024" version="1.1" xmlns="http://www.w3.org/2000/svg" p-id="4438" xmlns:xlink="http://www.w3.org/1999/xlink" width="200" height="200"><defs><style type="text/css">@font-face { font-family: feedback-iconfont; src: url("//at.alicdn.com/t/font_1031158_u69w8yhxdu.woff2?t=1630033759944") format("woff2"), url("//at.alicdn.com/t/font_1031158_u69w8yhxdu.woff?t=1630033759944") format("woff"), url("//at.alicdn.com/t/font_1031158_u69w8yhxdu.ttf?t=1630033759944") format("truetype"); }
</style></defs><path d="M796.672 1001.472a51.2 51.2 0 0 1-24.064-6.144L512 858.112l-261.12 137.216a51.2 51.2 0 0 1-74.24-53.76l51.2-290.816L15.36 445.44A51.2 51.2 0 0 1 44.032 358.4l291.84-42.496L465.92 51.2a51.2 51.2 0 0 1 92.16 0l130.56 264.192 291.84 42.496a51.2 51.2 0 0 1 28.16 87.552l-210.944 204.8 51.2 290.816a51.2 51.2 0 0 1-51.2 59.904z"  p-id="4439"></path></svg>