<?xml version="1.0" standalone="no"?><!DOCTYPE svg PUBLIC "-//W3C//DTD SVG 1.1//EN" "http://www.w3.org/Graphics/SVG/1.1/DTD/svg11.dtd"><svg t="1645782789823" class="icon" viewBox="0 0 1024 1024" version="1.1" xmlns="http://www.w3.org/2000/svg" p-id="6166" xmlns:xlink="http://www.w3.org/1999/xlink" width="200" height="200"><defs><style type="text/css"></style></defs><path d="M0 0h1024v1024H0z" fill="#D8D8D8" fill-opacity="0" p-id="6167"></path><path d="M512.0256 256C370.56 255.9488 256 370.4576 256 511.7952c0 111.7696 71.68 206.7712 171.4944 241.664 13.44 3.3792 11.3664-6.144 11.3664-12.6976v-44.3136c-77.6192 9.088-80.768-42.2656-85.9648-50.8672-10.5216-17.9456-35.4048-22.528-27.9808-31.104 17.664-9.088 35.712 2.304 56.576 33.1264 15.104 22.3488 44.544 18.5856 59.4944 14.848 3.2512-13.44 10.24-25.4464 19.84-34.7648-80.4096-14.4128-113.92-63.488-113.92-121.856 0-28.288 9.3184-54.3232 27.6224-75.3152-11.6736-34.6112 1.0752-64.256 2.816-68.6336 33.2032-2.9696 67.7632 23.808 70.4512 25.9072 18.8672-5.0944 40.448-7.7824 64.5888-7.7824 24.2432 0 45.8752 2.816 64.9216 7.936 6.4512-4.8896 38.4768-27.904 69.376-25.088 1.664 4.4032 14.1312 33.3312 3.1488 67.4816 18.5344 21.0688 27.9552 47.3088 27.9552 75.6992 0 58.4448-33.7408 107.5712-114.3808 121.7792 13.44 13.2608 21.76 31.6672 21.76 52.0448v64.3328c0.4864 5.1712 0 10.24 8.6016 10.24C695.0656 720.3072 768 624.5888 768 511.8464 768 370.4576 653.3632 256 512.0256 256z" p-id="6168"></path></svg>