<?xml version="1.0" standalone="no"?><!DOCTYPE svg PUBLIC "-//W3C//DTD SVG 1.1//EN" "http://www.w3.org/Graphics/SVG/1.1/DTD/svg11.dtd"><svg t="1648172641581" class="icon" viewBox="0 0 1024 1024" version="1.1" xmlns="http://www.w3.org/2000/svg" p-id="2259" xmlns:xlink="http://www.w3.org/1999/xlink" width="200" height="200"><defs><style type="text/css">@font-face { font-family: feedback-iconfont; src: url("//at.alicdn.com/t/font_1031158_u69w8yhxdu.woff2?t=1630033759944") format("woff2"), url("//at.alicdn.com/t/font_1031158_u69w8yhxdu.woff?t=1630033759944") format("woff"), url("//at.alicdn.com/t/font_1031158_u69w8yhxdu.ttf?t=1630033759944") format("truetype"); }
</style></defs><path d="M512 64a448 448 0 1 1 0 896A448 448 0 0 1 512 64z m0 76.032a372.032 372.032 0 0 0 0 743.936A372.032 372.032 0 0 0 512 140.032z m0 551.936a40 40 0 1 1 0 80 40 40 0 0 1 0-80z m0-416c41.984 0 81.6 14.4 111.616 40.704 31.168 27.328 48.384 64 48.256 103.296 0 57.856-38.08 109.824-97.088 132.48a48.32 48.32 0 0 0-30.912 44.8v22.72a8 8 0 0 1-8 8.064h-48a8 8 0 0 1-8-8.064v-21.44a111.744 111.744 0 0 1 72-105.792c34.112-13.12 56.128-41.6 56.128-72.704 0-44.16-43.072-80-96-80s-96 35.84-96 80v7.552a8 8 0 0 1-8 8h-48a8 8 0 0 1-8-8v-7.616c0-39.296 17.216-75.968 48.384-103.296A169.088 169.088 0 0 1 512 275.968z" fill="#000000" opacity=".65" p-id="2260"></path></svg>