<?xml version="1.0" standalone="no"?><!DOCTYPE svg PUBLIC "-//W3C//DTD SVG 1.1//EN" "http://www.w3.org/Graphics/SVG/1.1/DTD/svg11.dtd"><svg t="1645602874041" class="icon" viewBox="0 0 1024 1024" version="1.1" xmlns="http://www.w3.org/2000/svg" p-id="2074" xmlns:xlink="http://www.w3.org/1999/xlink" width="200" height="200"><defs><style type="text/css"></style></defs><path d="M0 0h1024v1024H0z" fill="#D8D8D8" fill-opacity="0" p-id="2075"></path><path d="M720 383.1552a170.9824 170.9824 0 0 1-49.1008 13.184 85.0432 85.0432 0 0 0 37.504-47.0016c-16.3584 9.7536-34.8416 16.896-54.0928 20.608a85.0432 85.0432 0 0 0-62.3104-26.9568 85.248 85.248 0 0 0-85.248 85.2992c0 6.6048 0.7936 13.2096 2.0992 19.5584a242.304 242.304 0 0 1-175.7952-89.2416 84.6592 84.6592 0 0 0-11.5968 43.0336c0 29.6192 15.0528 55.7056 37.9904 71.0656a86.016 86.016 0 0 1-38.5536-10.8544v1.0496c0 41.472 29.312 75.8016 68.352 83.712-7.168 1.8432-14.7968 2.8928-22.4512 2.8928a113.408 113.408 0 0 1-16.1024-1.28 85.4016 85.4016 0 0 0 79.7184 59.136 170.88 170.88 0 0 1-105.856 36.4288c-7.168 0-13.7472-0.256-20.608-1.024a241.408 241.408 0 0 0 130.944 38.2464c156.8 0 242.6112-129.92 242.6112-242.6624 0-3.6864 0-7.3984-0.256-11.1104a183.6288 183.6288 0 0 0 42.752-44.0832z" p-id="2076"></path></svg>