<?xml version="1.0" standalone="no"?><!DOCTYPE svg PUBLIC "-//W3C//DTD SVG 1.1//EN" "http://www.w3.org/Graphics/SVG/1.1/DTD/svg11.dtd"><svg t="1645594997448" class="icon" viewBox="0 0 1024 1024" version="1.1" xmlns="http://www.w3.org/2000/svg" p-id="1813" xmlns:xlink="http://www.w3.org/1999/xlink" width="200" height="200"><defs><style type="text/css"></style></defs><path d="M767.744 351.786667a32 32 0 0 1 32 32v510.165333a32 32 0 0 1-32 32H256.256a32 32 0 0 1-32-32V383.786667a32 32 0 0 1 64 0v478.165333h447.488V383.786667a32 32 0 0 1 32-32z m-350.421333 64.426666a32 32 0 0 1 32 32v284.586667a32 32 0 1 1-64 0v-284.586667a32 32 0 0 1 32-32z m191.530666 0a32 32 0 0 1 32 32v284.586667a32 32 0 1 1-64 0v-284.586667a32 32 0 0 1 32-32zM510.72 99.925333a130.133333 130.133333 0 0 1 129.877333 124.032h207.104a32 32 0 0 1 0 64H173.269333a32 32 0 0 1 0-64h207.658667a130.133333 130.133333 0 0 1 129.834667-124.032z m0 64c-34.346667 0-62.677333 26.453333-65.706667 60.032h131.413334a66.090667 66.090667 0 0 0-65.706667-60.032z" p-id="1814"></path></svg>